<?xml version="1.0" standalone="no"?>
<!DOCTYPE svg PUBLIC "-//W3C//DTD SVG 20010904//EN"
 "http://www.w3.org/TR/2001/REC-SVG-20010904/DTD/svg10.dtd">
<svg version="1.0" xmlns="http://www.w3.org/2000/svg"
 width="500.000000pt" height="500.000000pt" viewBox="0 0 500.000000 500.000000"
 preserveAspectRatio="xMidYMid meet">

<g transform="translate(0.000000,500.000000) scale(0.100000,-0.100000)"
fill="#000000" stroke="none">
<path d="M1982 4433 c-12 -5 -64 -73 -165 -215 -27 -38 -46 -68 -44 -68 8 0
237 265 238 275 1 12 -11 15 -29 8z"/>
<path d="M2985 4430 c-3 -6 18 -36 48 -68 29 -31 84 -93 122 -137 117 -137
113 -129 -27 66 -99 139 -127 166 -143 139z"/>
<path d="M1842 4362 c-52 -87 -158 -290 -145 -277 8 8 174 276 207 333 4 7 1
12 -7 12 -8 0 -33 -30 -55 -68z"/>
<path d="M2140 4409 c-35 -22 -250 -198 -250 -206 0 -2 6 0 13 4 7 4 58 35
112 67 55 33 110 65 122 73 13 7 30 25 39 39 24 36 6 48 -36 23z"/>
<path d="M2810 4410 c0 -17 74 -90 92 -90 6 0 64 -33 183 -104 29 -18 30 -18
10 0 -45 41 -192 162 -220 181 -48 32 -65 35 -65 13z"/>
<path d="M3090 4423 c0 -3 26 -47 58 -97 32 -50 78 -123 103 -163 24 -39 45
-70 47 -68 4 3 -97 192 -151 283 -18 28 -37 52 -44 52 -7 0 -13 -3 -13 -7z"/>
<path d="M1070 4401 c-5 -11 -10 -36 -10 -55 0 -31 3 -36 24 -36 14 0 32 -10
40 -22 9 -12 16 -17 16 -10 0 7 10 17 23 23 34 15 94 -11 103 -45 5 -23 11
-26 51 -26 l45 0 -7 65 c-5 45 -4 65 4 65 17 0 13 25 -7 43 -15 14 -41 17
-145 17 -115 0 -127 -2 -137 -19z"/>
<path d="M1400 4354 c0 -55 -2 -64 -14 -55 -11 9 -12 3 -4 -41 5 -29 13 -57
18 -63 4 -5 13 -29 19 -52 13 -49 28 -55 37 -15 4 15 14 45 24 67 10 22 20 59
23 83 5 39 4 41 -9 25 -12 -16 -13 -10 -14 50 0 53 -3 67 -15 67 -10 0 -15
-10 -16 -27 l-1 -28 -10 28 c-5 15 -16 27 -24 27 -11 0 -14 -16 -14 -66z"/>
<path d="M1534 4412 c-6 -4 -16 -16 -21 -27 -9 -15 -8 -22 4 -30 13 -10 14
-21 6 -68 l-10 -57 43 0 c37 0 45 4 56 27 15 31 89 66 96 45 2 -7 8 -9 14 -6
5 3 12 -4 15 -16 5 -18 12 -11 44 47 21 37 39 74 39 81 0 9 -34 12 -137 12
-76 0 -143 -4 -149 -8z"/>
<path d="M3180 4409 c0 -6 17 -43 37 -81 31 -59 38 -67 44 -50 11 30 44 36 87
15 24 -11 38 -26 40 -40 3 -20 9 -23 48 -23 l46 0 -7 65 c-5 45 -4 65 4 65 17
0 13 25 -7 43 -15 14 -42 17 -155 17 -93 0 -137 -4 -137 -11z"/>
<path d="M3514 4386 c-3 -19 -3 -48 1 -65 7 -33 -10 -45 -19 -13 -2 9 -2 -5 1
-33 3 -27 13 -63 21 -80 8 -16 18 -43 21 -59 7 -33 31 -48 31 -19 0 10 9 36
20 58 22 42 40 152 21 125 -8 -11 -11 2 -11 53 0 60 -2 68 -17 65 -10 -2 -21
-16 -24 -33 l-7 -30 -1 33 c-1 44 -28 43 -37 -2z"/>
<path d="M3645 4400 c-15 -17 -16 -24 -6 -43 9 -17 10 -38 3 -75 l-9 -52 48 0
c42 0 48 3 51 23 2 14 17 29 42 41 37 18 42 18 67 3 24 -13 30 -13 40 -1 6 8
20 14 31 14 17 0 19 6 16 53 l-3 52 -131 3 c-120 2 -132 1 -149 -18z"/>
<path d="M1060 4251 c0 -17 4 -31 8 -31 9 0 82 -95 82 -107 0 -4 -14 6 -32 23
-24 22 -21 16 12 -23 23 -29 46 -50 51 -48 4 3 11 0 15 -6 4 -7 3 -9 -4 -5 -5
3 -12 1 -14 -5 -2 -6 -29 17 -61 50 -45 47 -59 57 -64 44 -8 -21 5 -40 58 -81
l44 -34 -48 46 c-27 25 -47 50 -45 56 2 6 25 -12 52 -39 26 -27 45 -54 42 -60
-4 -6 -22 -11 -41 -11 -23 0 -39 -7 -49 -22 -20 -29 -10 -41 28 -35 17 3 50 9
74 13 37 6 46 3 68 -16 l24 -24 -6 35 c-4 19 -14 45 -23 58 -9 13 -41 74 -71
135 -43 87 -60 112 -77 114 -20 3 -23 -1 -23 -27z m48 -28 c12 -21 31 -53 43
-70 11 -18 19 -33 16 -33 -6 0 -86 107 -93 125 -12 30 13 14 34 -22z m72 -145
c0 -6 -7 -5 -15 2 -8 7 -15 17 -15 22 0 6 7 5 15 -2 8 -7 15 -17 15 -22z"/>
<path d="M1221 4205 c1 -104 14 -141 23 -65 11 91 10 111 -8 128 -15 15 -16
10 -15 -63z"/>
<path d="M2335 4265 c-33 -7 -100 -28 -150 -46 -85 -31 -88 -33 -58 -40 68
-14 128 -76 208 -214 46 -81 55 -90 83 -93 55 -6 36 42 -36 92 -22 15 -46 41
-53 58 -11 27 -10 33 7 47 11 10 18 25 16 39 -8 56 33 101 78 87 16 -5 20 -2
20 19 0 14 5 28 10 31 6 3 10 13 10 21 0 18 -52 18 -135 -1z"/>
<path d="M2535 4258 c3 -13 9 -33 12 -45 4 -18 10 -21 32 -17 37 8 66 -26 66
-77 0 -22 5 -41 12 -43 24 -10 15 -66 -14 -89 -104 -85 -123 -123 -58 -115 23
2 36 17 74 84 85 150 141 208 215 224 28 6 24 9 -59 39 -95 34 -207 61 -257
61 -27 0 -30 -3 -23 -22z"/>
<path d="M3756 4257 c-16 -24 -17 -33 -7 -66 6 -21 11 -54 12 -72 l1 -34 9 33
c6 18 9 63 7 100 l-3 67 -19 -28z"/>
<path d="M3801 4230 c1 -55 1 -55 10 -17 6 24 5 45 -1 55 -7 12 -9 2 -9 -38z"/>
<path d="M3888 4263 c-20 -26 -134 -262 -143 -298 l-7 -30 26 24 c22 20 31 23
68 17 113 -20 108 -20 108 3 0 24 -27 41 -67 41 -28 1 -28 1 20 45 26 24 47
47 47 50 0 4 -22 -13 -50 -39 -70 -65 -75 -57 -7 12 l57 58 0 67 c0 58 -2 67
-18 67 -11 0 -25 -8 -34 -17z m42 -10 c0 -3 -18 -31 -41 -60 -22 -30 -39 -56
-37 -59 3 -2 19 16 37 41 18 25 34 45 36 45 2 0 3 -15 2 -34 -3 -51 -104 -165
-121 -137 -3 5 3 19 13 32 10 13 18 31 18 41 0 18 74 138 86 138 4 0 7 -3 7
-7z"/>
<path d="M3869 4123 c-43 -48 -62 -73 -57 -73 3 0 24 23 47 50 45 53 52 69 10
23z"/>
<path d="M1158 4245 c2 -14 6 -25 8 -25 2 0 4 11 4 25 0 14 -4 25 -9 25 -4 0
-6 -11 -3 -25z"/>
<path d="M1181 4243 c1 -16 5 -39 9 -53 6 -20 8 -14 9 28 1 28 -3 52 -9 52 -5
0 -10 -12 -9 -27z"/>
<path d="M1630 4240 c-9 -22 -9 -37 -1 -61 6 -18 11 -53 12 -78 2 -80 17 -7
18 87 1 86 -8 102 -29 52z"/>
<path d="M1681 4215 l1 -60 10 48 c8 35 7 52 -1 60 -8 8 -11 -5 -10 -48z"/>
<path d="M1712 4240 c0 -19 2 -27 5 -17 2 9 2 25 0 35 -3 9 -5 1 -5 -18z"/>
<path d="M3306 4257 c-5 -9 -5 -39 0 -65 8 -43 8 -45 12 -14 2 17 2 47 0 65
-3 25 -6 28 -12 14z"/>
<path d="M3341 4183 c1 -101 16 -173 18 -86 1 28 6 64 11 79 8 19 7 37 0 60
-19 58 -30 38 -29 -53z"/>
<path d="M3832 4245 c0 -16 2 -22 5 -12 2 9 2 23 0 30 -3 6 -5 -1 -5 -18z"/>
<path d="M3278 4235 c2 -14 6 -25 8 -25 2 0 4 11 4 25 0 14 -4 25 -9 25 -4 0
-6 -11 -3 -25z"/>
<path d="M1061 4194 c0 -11 3 -14 6 -6 3 7 2 16 -1 19 -3 4 -6 -2 -5 -13z"/>
<path d="M1289 4173 c-22 -26 -18 -123 6 -158 l20 -30 3 28 c2 16 -4 44 -12
62 -18 38 -13 61 15 70 23 8 39 -1 39 -21 0 -8 5 -14 10 -14 14 0 12 54 -2 68
-17 17 -63 15 -79 -5z"/>
<path d="M1526 4177 c-13 -9 -16 -22 -13 -47 3 -31 5 -33 12 -12 5 14 15 22
31 22 33 0 46 -30 28 -64 -16 -31 -19 -86 -5 -86 5 0 17 20 26 45 21 55 15
113 -16 138 -25 20 -39 21 -63 4z"/>
<path d="M2480 4171 c-13 -25 -13 -38 1 -101 6 -27 15 -48 19 -45 5 3 14 29
20 59 16 78 -12 139 -40 87z"/>
<path d="M3401 4164 c-13 -17 -21 -41 -21 -66 0 -42 23 -108 38 -108 13 0 7
62 -8 89 -14 27 3 61 31 61 12 0 23 -8 26 -20 9 -32 23 -23 23 15 0 24 -6 37
-19 45 -31 16 -48 12 -70 -16z"/>
<path d="M3633 4183 c-7 -2 -13 -21 -13 -41 l0 -37 20 25 c16 21 22 23 37 14
19 -12 20 -28 7 -114 -6 -40 -5 -43 10 -31 38 31 44 142 10 176 -15 15 -46 18
-71 8z"/>
<path d="M1936 4092 c-91 -61 -206 -157 -206 -172 0 -5 12 -5 28 1 40 14 102
-11 187 -75 87 -66 106 -76 144 -76 40 0 40 16 0 24 -18 3 -46 21 -63 40 -69
72 -75 201 -14 289 11 15 18 27 15 27 -2 0 -43 -26 -91 -58z"/>
<path d="M2390 4135 c-17 -20 0 -67 53 -147 38 -58 42 -61 45 -37 4 33 -24
146 -44 177 -17 25 -36 28 -54 7z"/>
<path d="M2552 4133 c-17 -31 -44 -151 -40 -180 3 -26 7 -22 51 47 38 59 47
82 45 110 -2 27 -8 36 -25 38 -13 2 -25 -4 -31 -15z"/>
<path d="M2983 4120 c53 -63 60 -165 17 -249 -21 -42 -70 -81 -102 -81 -10 0
-18 -4 -18 -10 0 -24 69 -9 116 25 125 90 151 106 186 115 24 7 45 7 62 0 40
-15 31 4 -26 55 -53 46 -238 175 -252 175 -4 0 3 -13 17 -30z"/>
<path d="M1315 4120 c-8 -14 3 -30 21 -30 8 0 14 9 14 20 0 21 -24 28 -35 10z"/>
<path d="M1547 4124 c-15 -15 -7 -45 11 -42 9 2 17 12 17 22 0 20 -16 31 -28
20z"/>
<path d="M3427 4124 c-15 -15 -7 -45 11 -42 9 2 17 12 17 22 0 20 -16 31 -28
20z"/>
<path d="M3650 4110 c0 -15 5 -20 18 -18 9 2 17 10 17 18 0 8 -8 16 -17 18
-13 2 -18 -3 -18 -18z"/>
<path d="M2072 4067 c-18 -19 -22 -35 -22 -89 0 -85 28 -131 81 -136 45 -4 61
15 57 65 -3 41 -21 48 -26 11 -5 -33 -17 -41 -40 -29 -26 14 -32 42 -17 79 24
55 91 55 125 -1 22 -36 27 -106 8 -125 -6 -6 -9 -14 -6 -17 7 -7 81 20 85 31
5 16 -74 134 -125 187 -53 54 -86 60 -120 24z"/>
<path d="M2803 4041 c-44 -45 -102 -130 -119 -173 -6 -18 2 -23 64 -43 21 -6
23 -5 13 13 -6 12 -11 42 -11 67 0 38 5 52 29 76 35 34 72 38 101 9 27 -27 27
-85 -1 -100 -26 -14 -52 4 -44 31 9 28 -14 33 -26 6 -16 -35 7 -81 43 -85 62
-7 98 46 98 143 0 46 -4 60 -25 80 -37 38 -67 32 -122 -24z"/>
<path d="M1346 4064 c-22 -21 -20 -41 4 -49 11 -4 20 -15 20 -26 0 -30 32 -20
44 13 20 57 -29 101 -68 62z"/>
<path d="M3590 4061 c-17 -32 -12 -69 13 -86 21 -15 22 -14 25 10 2 14 10 25
17 25 23 0 28 20 11 45 -20 30 -51 32 -66 6z"/>
<path d="M1476 4048 c-9 -12 -16 -29 -16 -38 1 -25 26 -50 50 -50 19 0 20 2
10 15 -16 20 -5 45 20 45 23 0 24 4 10 31 -14 26 -55 24 -74 -3z"/>
<path d="M3450 4051 c-14 -27 -13 -31 10 -31 26 0 36 -25 19 -46 -11 -14 -10
-15 11 -12 13 1 31 15 39 29 13 24 13 29 -2 53 -21 31 -62 35 -77 7z"/>
<path d="M2366 4022 c-3 -5 22 -35 56 -68 66 -64 67 -58 4 24 -41 52 -50 59
-60 44z"/>
<path d="M2568 3973 c-68 -88 -68 -94 0 -28 57 55 76 85 53 85 -4 0 -28 -26
-53 -57z"/>
<path d="M1292 3957 c-13 -16 -52 -144 -52 -172 0 -27 24 -49 45 -41 8 3 15
16 15 29 0 19 19 103 36 159 7 22 -29 43 -44 25z"/>
<path d="M3671 3957 c-8 -11 -6 -34 9 -92 11 -43 20 -87 20 -97 0 -26 28 -34
48 -14 16 15 15 22 -6 103 -27 108 -44 131 -71 100z"/>
<path d="M1405 3940 c-3 -5 -17 -10 -31 -10 -32 0 -30 -20 5 -55 17 -15 32
-37 34 -49 3 -19 4 -19 15 7 14 33 20 34 32 2 13 -34 21 -32 59 15 37 46 38
76 2 72 -13 -1 -34 5 -47 13 -27 17 -60 20 -69 5z"/>
<path d="M3525 3934 c-12 -9 -30 -12 -47 -8 -24 5 -28 3 -28 -18 0 -26 69
-109 76 -92 3 6 11 20 19 30 13 18 14 18 26 -11 10 -26 13 -27 16 -10 3 11 18
36 33 56 31 39 30 49 -6 49 -13 0 -26 5 -29 10 -9 14 -37 12 -60 -6z"/>
<path d="M1107 3920 c-14 -11 -33 -40 -42 -64 -14 -37 -15 -50 -5 -80 14 -43
35 -56 89 -56 52 0 71 26 71 98 0 40 -4 54 -17 59 -23 9 -67 -19 -71 -45 -4
-24 7 -29 26 -10 9 9 13 8 18 -5 15 -40 -21 -82 -50 -58 -11 9 -16 30 -16 63
0 39 5 54 25 73 28 29 34 30 80 11 28 -12 35 -12 35 -2 0 36 -103 47 -143 16z"/>
<path d="M3767 3924 c-38 -21 -24 -36 18 -18 64 26 105 -10 105 -95 0 -61 -51
-87 -70 -35 -13 33 5 61 27 43 20 -17 28 -3 15 26 -13 28 -58 44 -75 26 -17
-17 -13 -95 7 -125 13 -21 24 -26 59 -26 58 0 87 30 87 89 0 103 -87 162 -173
115z"/>
<path d="M1337 3864 c-13 -14 -7 -44 13 -64 25 -25 40 -26 40 -2 0 22 -43 76
-53 66z"/>
<path d="M1621 3811 c-55 -67 -121 -158 -175 -244 l-37 -58 38 21 c47 25 113
26 191 1 l60 -18 -29 41 c-53 75 -58 201 -11 280 12 20 19 36 17 36 -2 0 -27
-27 -54 -59z"/>
<path d="M3345 3826 c46 -92 29 -233 -36 -296 -18 -17 -20 -21 -6 -17 117 42
218 47 255 14 10 -9 22 -17 25 -17 17 0 -143 228 -227 325 l-35 40 24 -49z"/>
<path d="M3638 3853 c-22 -25 -41 -64 -34 -70 19 -20 73 46 59 72 -8 14 -11
14 -25 -2z"/>
<path d="M1755 3841 c-40 -17 -59 -50 -63 -110 -5 -73 10 -123 48 -155 38 -31
68 -24 86 20 16 38 18 102 4 124 -10 16 -13 9 -11 -26 1 -11 -7 -28 -18 -38
-29 -27 -51 -6 -51 48 0 83 80 114 115 46 8 -16 15 -54 15 -84 l0 -55 63 47
62 47 -57 42 c-32 24 -58 48 -58 53 0 16 -62 50 -90 49 -14 0 -34 -4 -45 -8z"/>
<path d="M3155 3838 c-11 -6 -45 -34 -75 -62 -31 -28 -64 -55 -73 -61 -15 -9
-9 -17 48 -57 l65 -48 0 58 c0 69 16 103 54 117 25 8 31 6 52 -18 41 -48 27
-139 -20 -121 -16 6 -30 41 -24 61 2 6 -1 12 -7 12 -14 2 -18 -89 -6 -122 24
-62 81 -51 119 23 26 52 29 127 7 170 -26 50 -94 74 -140 48z"/>
<path d="M2448 3760 c12 -10 29 -31 36 -45 l14 -27 12 23 c7 13 24 34 38 46
l27 23 -75 0 c-75 -1 -75 -1 -52 -20z"/>
<path d="M2264 3741 c-29 -10 -84 -36 -123 -56 -67 -36 -70 -38 -49 -49 45
-23 49 -103 4 -100 -12 1 -13 -2 -5 -17 25 -47 98 4 156 110 20 36 45 81 55
99 11 17 18 32 16 32 -2 -1 -26 -9 -54 -19z"/>
<path d="M2717 3692 c84 -156 126 -202 173 -187 23 7 34 33 13 31 -44 -3 -40
78 5 100 21 11 19 13 -48 48 -38 20 -94 45 -124 56 l-55 19 36 -67z"/>
<path d="M1377 3743 c-10 -9 -9 -63 1 -63 4 0 13 9 19 20 18 28 1 65 -20 43z"/>
<path d="M3596 3734 c-5 -14 9 -54 19 -54 3 0 5 16 5 35 0 36 -13 47 -24 19z"/>
<path d="M1087 3670 c-31 -25 -40 -60 -27 -108 13 -52 59 -94 102 -94 44 -1
88 18 88 37 0 14 -3 14 -30 0 -42 -22 -66 -19 -89 11 -26 33 -29 115 -5 135
20 17 48 1 52 -31 5 -29 -15 -51 -28 -30 -13 21 -23 5 -16 -24 7 -27 43 -43
71 -32 24 9 20 111 -5 136 -26 26 -80 26 -113 0z"/>
<path d="M2372 3678 c-7 -7 -12 -24 -12 -39 0 -21 5 -28 23 -31 18 -2 23 -10
25 -41 4 -48 -19 -87 -53 -87 -13 0 -27 5 -30 10 -13 22 -21 7 -37 -72 -34
-164 -132 -438 -158 -438 -14 0 -14 -1 19 77 37 86 84 224 78 229 -2 3 -12
-17 -22 -43 -29 -77 -104 -223 -115 -223 -15 0 -12 17 10 60 11 22 18 40 15
40 -2 0 -14 -18 -26 -41 l-21 -41 -19 21 c-21 22 -25 46 -9 56 6 3 10 11 10
17 0 6 -3 8 -6 5 -10 -9 -44 12 -44 27 0 8 9 16 20 19 20 5 20 6 -5 43 -14 20
-25 50 -25 65 l0 28 -36 -24 c-20 -14 -45 -25 -55 -25 -29 0 -38 -29 -27 -88
18 -90 -17 -160 -90 -182 l-32 -9 6 39 c6 35 4 40 -24 54 -37 19 -62 53 -62
83 0 37 -12 27 -53 -41 -124 -209 -185 -388 -221 -653 l-6 -43 39 0 c33 0 38
3 34 19 -3 11 3 24 15 32 10 8 31 37 45 64 14 28 32 58 39 69 13 16 12 21 -9
42 -55 55 29 134 94 89 11 -8 37 -17 56 -19 29 -4 37 -1 42 15 4 10 25 32 48
48 24 16 69 65 102 110 54 72 85 99 85 72 0 -12 -87 -119 -147 -182 -25 -26
-40 -49 -35 -53 12 -7 76 63 140 154 25 36 47 67 49 69 2 3 8 0 14 -6 11 -11
-79 -138 -150 -211 -24 -24 -40 -46 -37 -50 11 -10 85 70 149 160 36 52 65 84
70 79 6 -6 -2 -24 -18 -45 -32 -42 -20 -47 24 -11 26 23 33 24 50 13 30 -19
26 -25 -21 -31 -77 -10 -156 -85 -179 -169 -18 -68 -5 -76 19 -11 32 88 72
118 159 118 62 0 66 -2 99 -37 27 -30 34 -46 34 -79 0 -22 -5 -49 -10 -60 -13
-23 -43 -25 -60 -4 -14 16 -6 35 16 35 24 0 16 40 -11 52 -37 16 -50 -2 -50
-68 0 -49 -2 -54 -22 -54 -29 0 -55 -28 -48 -51 4 -13 2 -19 -9 -19 -48 0
-180 -180 -224 -305 -23 -65 -24 -79 -18 -190 4 -66 12 -140 18 -165 6 -25 11
-70 12 -100 0 -30 5 -61 10 -69 5 -8 11 -45 12 -84 3 -55 13 -90 49 -174 25
-58 45 -116 45 -130 0 -13 6 -39 14 -58 11 -27 22 -35 49 -40 19 -4 47 -19 62
-35 25 -26 30 -27 91 -22 47 3 76 0 110 -13 l46 -17 28 27 c54 52 77 144 49
197 -13 25 -84 57 -126 58 -42 0 -81 19 -89 42 -3 11 5 36 19 61 22 38 24 46
13 72 -20 46 -35 53 -109 51 -79 -1 -80 0 -147 119 -101 178 -120 377 -50 516
35 67 97 135 144 157 25 12 46 29 46 37 0 9 9 15 25 15 25 0 65 31 65 50 0 5
16 17 35 26 53 25 78 80 73 161 -2 35 -2 63 -1 63 2 0 54 -36 116 -79 297
-210 586 -361 691 -361 48 0 106 -144 106 -264 0 -124 -38 -240 -120 -370 -44
-70 -65 -80 -144 -70 -36 5 -46 3 -64 -16 -28 -31 -36 -69 -18 -89 8 -9 19
-29 25 -44 9 -24 8 -31 -14 -53 -17 -17 -35 -24 -62 -24 -47 0 -118 -32 -132
-58 -15 -29 -14 -108 3 -140 8 -15 28 -40 44 -56 l30 -28 46 17 c34 13 63 16
110 13 61 -5 66 -4 91 22 15 15 40 30 55 34 34 6 61 43 65 89 2 18 24 82 50
142 39 91 47 121 47 170 0 35 5 69 14 82 9 15 12 36 8 67 -4 25 -3 53 1 63 9
20 9 21 25 153 15 122 9 191 -25 271 -42 100 -43 93 22 113 32 10 70 25 85 32
45 23 98 75 98 95 0 33 -41 22 -112 -29 -37 -27 -88 -55 -114 -62 -47 -13 -47
-13 -68 16 -42 59 -89 104 -113 110 -16 5 -22 11 -18 22 7 20 -23 52 -50 52
-19 0 -21 5 -21 50 1 61 -20 88 -53 71 -24 -14 -29 -51 -5 -51 23 0 14 -44
-10 -48 -42 -8 -62 78 -31 137 17 34 70 61 117 61 77 0 133 -49 169 -148 17
-48 23 -31 9 27 -18 74 -61 128 -127 158 -92 42 -173 19 -224 -63 -46 -75 -19
-199 53 -238 19 -11 39 -29 44 -40 5 -11 23 -25 39 -31 17 -5 34 -15 38 -22 4
-7 27 -23 50 -35 54 -27 33 -35 -35 -12 -86 28 -162 70 -324 179 -255 173
-454 331 -454 361 0 34 233 114 330 114 102 0 285 -66 378 -137 l33 -25 -45
84 c-57 107 -107 244 -141 388 -36 152 -33 146 -47 132 -17 -17 -53 -15 -70 6
-34 38 -29 112 7 112 19 0 28 35 15 60 -22 41 -79 20 -111 -42 l-21 -41 -18
41 c-25 56 -78 80 -108 50z"/>
<path d="M3801 3671 c-24 -24 -36 -93 -21 -120 13 -26 51 -27 73 -3 19 20 23
52 7 52 -5 0 -10 -4 -10 -10 0 -16 -27 -11 -34 6 -8 20 19 64 39 64 41 0 49
-107 10 -145 -28 -29 -45 -31 -86 -9 -29 14 -31 14 -27 -3 2 -11 19 -23 41
-30 31 -11 44 -10 72 1 72 30 101 141 50 191 -30 31 -86 34 -114 6z"/>
<path d="M1258 3659 c-10 -5 -18 -19 -18 -31 0 -38 44 -180 57 -185 19 -8 45
17 37 36 -3 9 -14 54 -23 100 -10 47 -22 86 -27 88 -5 1 -17 -2 -26 -8z"/>
<path d="M3706 3658 c-41 -160 -47 -201 -35 -209 28 -18 39 -7 58 55 32 104
35 131 16 149 -20 20 -34 22 -39 5z"/>
<path d="M1357 3607 c-26 -25 -34 -62 -13 -62 16 0 48 52 44 71 -3 17 -6 16
-31 -9z"/>
<path d="M2016 3607 l-28 -23 27 -12 c24 -11 27 -11 21 3 -3 9 -1 25 4 36 14
24 11 24 -24 -4z"/>
<path d="M2958 3594 c4 -31 6 -33 26 -22 11 6 22 12 24 13 2 2 -10 12 -25 23
l-29 20 4 -34z"/>
<path d="M3607 3623 c-8 -7 17 -56 37 -72 13 -11 17 -11 22 2 10 28 -41 89
-59 70z"/>
<path d="M2070 3602 c0 -5 7 -9 15 -9 8 0 15 4 15 9 0 4 -7 8 -15 8 -8 0 -15
-4 -15 -8z"/>
<path d="M2900 3602 c0 -5 7 -9 15 -9 8 0 12 4 9 9 -3 4 -9 8 -15 8 -5 0 -9
-4 -9 -8z"/>
<path d="M2725 3580 c7 -30 75 -170 108 -224 l24 -38 32 40 c28 36 30 43 19
61 -8 14 -24 21 -43 21 -42 1 -69 25 -110 100 -20 36 -33 54 -30 40z"/>
<path d="M2250 3549 c-24 -58 -78 -109 -114 -109 -21 0 -35 -7 -44 -21 -12
-18 -10 -25 13 -55 14 -19 30 -34 35 -34 18 0 135 221 128 242 -2 6 -11 -4
-18 -23z"/>
<path d="M1852 3454 c-49 -54 -59 -70 -45 -72 10 -2 39 -10 64 -18 34 -11 53
-12 73 -5 32 13 33 27 4 58 -12 13 -24 42 -27 65 l-6 42 -63 -70z"/>
<path d="M3080 3494 c0 -17 -11 -48 -25 -68 -31 -46 -31 -54 0 -66 18 -7 38
-5 68 5 23 8 50 15 60 15 27 0 21 11 -43 80 l-59 65 -1 -31z"/>
<path d="M1510 3483 c-71 -23 -100 -71 -100 -168 0 -108 40 -167 102 -152 48
12 72 122 38 177 -14 23 -30 2 -18 -25 14 -32 -5 -57 -41 -53 -23 3 -26 8 -29
46 -3 38 1 47 31 77 19 19 44 35 56 35 23 0 46 -30 56 -72 4 -16 10 -28 14
-28 7 0 71 86 71 94 0 2 -21 17 -47 34 -48 30 -104 45 -133 35z"/>
<path d="M3422 3480 c-32 -7 -112 -57 -112 -69 1 -10 61 -86 66 -84 3 1 15 21
27 45 27 52 53 59 95 23 33 -28 49 -77 37 -115 -10 -31 -69 -25 -73 8 -2 13 2
29 8 37 8 10 8 15 -1 20 -15 10 -27 -11 -35 -65 -13 -84 44 -143 106 -110 31
17 50 70 50 140 0 127 -67 195 -168 170z"/>
<path d="M1228 3443 l-27 -27 -54 17 c-66 21 -83 21 -91 2 -8 -23 22 -45 62
-45 l36 0 -53 -54 c-39 -40 -52 -59 -47 -72 6 -15 18 -7 74 47 36 35 56 52 44
38 -28 -33 -29 -48 0 -23 l22 19 -22 -29 c-12 -15 -19 -33 -16 -38 3 -5 -14
-39 -37 -75 -24 -36 -45 -60 -47 -54 -2 6 15 37 38 67 23 31 40 57 38 60 -3 2
-20 -17 -38 -43 -19 -26 -36 -41 -38 -34 -2 7 4 22 14 33 19 21 19 21 -3 7
-19 -11 -23 -23 -23 -61 0 -97 39 -69 110 81 28 58 57 112 64 121 11 12 30 90
23 90 -2 0 -15 -12 -29 -27z m-103 -115 c-28 -29 -51 -55 -52 -57 -2 -2 -6 -1
-10 3 -7 7 93 106 106 106 3 0 -17 -24 -44 -52z"/>
<path d="M3745 3434 c1 -18 12 -46 24 -62 12 -17 43 -77 70 -135 45 -96 69
-126 92 -111 11 6 12 144 2 144 -5 0 -30 26 -58 58 -47 55 -40 52 35 -13 21
-18 15 -9 -15 23 l-49 52 31 0 c47 0 63 9 63 36 0 29 -28 32 -83 9 -49 -20
-64 -19 -91 8 l-23 23 2 -32z m185 -193 c0 -11 -5 -10 -22 5 -22 18 -22 18 1
-8 13 -15 21 -32 19 -39 -2 -7 -33 25 -68 72 -35 46 -54 75 -42 65 26 -23 29
-11 5 18 -10 12 11 -6 45 -39 34 -33 62 -66 62 -74z m-15 -63 c24 -42 1 -33
-27 10 -44 66 -53 92 -19 52 16 -19 37 -47 46 -62z"/>
<path d="M3860 3295 c13 -14 26 -25 28 -25 3 0 -5 11 -18 25 -13 14 -26 25
-28 25 -3 0 5 -11 18 -25z"/>
<path d="M2760 3427 c0 -13 71 -149 76 -144 3 2 -13 38 -35 78 -23 41 -41 71
-41 66z"/>
<path d="M2192 3348 c-18 -33 -31 -62 -29 -64 2 -3 19 23 36 57 18 33 31 62
29 64 -1 2 -18 -24 -36 -57z"/>
<path d="M1292 3280 c-42 -91 -104 -266 -117 -330 l-7 -35 38 36 c62 59 119
83 196 83 51 1 69 5 74 16 3 8 -2 19 -12 25 -77 45 -128 137 -128 232 -1 35
-1 63 -2 63 -1 0 -20 -41 -42 -90z"/>
<path d="M3663 3315 c0 -95 -59 -208 -122 -235 -24 -9 -29 -16 -22 -28 7 -12
22 -15 58 -13 66 3 149 -29 207 -81 l47 -41 -6 29 c-15 64 -86 264 -123 344
l-39 85 0 -60z"/>
<path d="M3006 3282 c-3 -22 -15 -51 -27 -66 l-21 -27 21 -6 c11 -3 21 -11 21
-19 0 -15 -34 -36 -44 -27 -22 22 3 -26 55 -107 85 -131 155 -217 201 -246 23
-15 38 -32 38 -44 0 -17 5 -19 42 -14 23 4 53 13 65 21 24 16 66 11 90 -9 21
-17 16 -76 -7 -88 -20 -11 -20 -11 -2 -38 11 -15 30 -47 42 -72 13 -25 32 -51
42 -59 12 -8 18 -21 15 -32 -4 -16 0 -19 27 -19 18 0 35 2 38 5 6 6 -16 157
-38 255 -31 139 -125 354 -209 478 l-25 37 0 -33 c0 -37 -45 -92 -76 -92 -14
0 -16 -7 -11 -44 l6 -44 -31 8 c-73 21 -100 73 -96 181 l3 80 -38 14 c-21 7
-46 20 -56 29 -17 16 -19 15 -25 -22z"/>
<path d="M1119 3283 l-24 -28 28 24 c25 23 32 31 24 31 -2 0 -14 -12 -28 -27z"/>
<path d="M2760 3306 c0 -21 91 -259 122 -318 35 -69 102 -147 115 -135 2 3
-17 37 -42 76 -50 77 -141 256 -170 334 -15 40 -25 57 -25 43z"/>
<path d="M2924 3035 c38 -79 142 -232 198 -291 77 -81 78 -65 2 22 -37 43 -96
123 -133 179 -92 143 -94 146 -67 90z"/>
<path d="M3015 2953 c65 -103 185 -240 185 -212 0 8 -18 33 -41 54 -22 22 -65
73 -96 113 -56 73 -80 95 -48 45z"/>
<path d="M1317 2916 c-93 -25 -130 -83 -131 -203 -1 -68 2 -86 20 -110 46 -61
117 -24 117 61 0 41 -15 76 -32 76 -4 0 -5 -15 -3 -34 3 -26 -1 -37 -15 -44
-29 -16 -67 7 -71 42 -12 100 73 153 139 86 19 -18 31 -25 34 -17 2 7 15 45
28 85 l23 72 -30 -1 c-17 0 -53 -6 -79 -13z"/>
<path d="M3598 2849 c14 -46 27 -86 29 -88 1 -2 14 11 28 28 51 60 131 29 142
-56 6 -47 -13 -75 -51 -75 -35 0 -38 3 -38 47 0 29 -3 34 -14 24 -41 -33 -18
-142 32 -155 61 -16 86 30 82 153 -2 74 -7 97 -24 120 -26 36 -96 70 -161 79
l-52 6 27 -83z"/>
<path d="M1694 2615 c17 -22 33 -42 35 -45 2 -3 6 0 8 7 2 7 15 28 28 48 l24
35 -63 -3 -63 -2 31 -40z"/>
<path d="M3238 2615 l27 -45 32 38 c37 42 31 48 -44 50 l-42 2 27 -45z"/>
<path d="M1146 2580 c13 -96 69 -172 119 -162 30 5 31 6 40 59 l6 41 -38 -5
c-45 -6 -82 19 -113 75 l-21 37 7 -45z"/>
<path d="M3841 2591 c-21 -50 -57 -75 -107 -76 -47 0 -51 -7 -35 -64 9 -32 52
-44 80 -24 27 18 58 78 71 138 12 56 8 68 -9 26z"/>
<path d="M1593 2565 c-21 -9 -33 -21 -33 -34 0 -16 5 -18 38 -14 27 4 43 0 54
-10 9 -9 18 -13 22 -10 14 14 5 53 -16 67 -27 19 -25 19 -65 1z"/>
<path d="M1796 2564 c-20 -19 -20 -44 -2 -70 17 -22 27 -15 46 34 11 29 11 35
-1 43 -19 12 -25 11 -43 -7z"/>
<path d="M3162 2571 c-11 -7 -11 -16 -1 -50 14 -47 35 -53 49 -15 13 34 13 40
-6 58 -18 18 -24 19 -42 7z"/>
<path d="M3343 2568 c-17 -8 -23 -20 -23 -45 0 -33 0 -33 25 -17 17 11 35 14
60 10 27 -5 35 -4 35 8 0 16 -26 46 -40 46 -5 0 -14 2 -22 4 -7 3 -23 0 -35
-6z"/>
<path d="M1580 2401 c13 -45 39 -96 76 -148 34 -48 34 -48 34 -18 0 33 19 76
36 82 6 2 17 -8 24 -23 13 -23 15 -24 21 -7 4 10 8 21 8 24 1 4 -24 17 -55 30
-31 12 -78 37 -105 55 l-47 33 8 -28z"/>
<path d="M3381 2400 c-19 -16 -63 -41 -98 -56 -62 -27 -71 -36 -55 -62 6 -9
12 -6 20 13 6 14 16 25 22 25 16 0 42 -69 36 -94 -4 -16 2 -13 24 13 40 47 92
148 88 170 -3 17 -6 16 -37 -9z"/>
<path d="M1403 2290 c-18 -34 -19 -40 -5 -40 8 0 23 -6 31 -14 9 -7 30 -16 46
-19 24 -4 34 0 48 19 23 31 9 60 -38 80 -50 21 -58 18 -82 -26z"/>
<path d="M3514 2316 c-17 -8 -38 -24 -47 -36 -14 -20 -13 -23 8 -44 25 -26 73
-25 88 0 4 8 19 14 32 14 l24 0 -26 40 c-29 44 -34 45 -79 26z"/>
<path d="M2305 2260 c3 -5 10 -10 16 -10 5 0 9 5 9 10 0 6 -7 10 -16 10 -8 0
-12 -4 -9 -10z"/>
<path d="M2670 2260 c0 -5 5 -10 10 -10 6 0 10 5 10 10 0 6 -4 10 -10 10 -5 0
-10 -4 -10 -10z"/>
<path d="M1200 2241 c-5 -11 -10 -47 -10 -80 0 -52 3 -62 26 -80 31 -25 55
-26 93 -7 70 37 66 80 -14 131 -29 19 -56 39 -60 45 -10 16 -23 12 -35 -9z"/>
<path d="M3759 2244 c-7 -8 -30 -24 -51 -35 -77 -39 -88 -103 -23 -134 43 -20
89 -13 110 18 27 38 16 167 -14 167 -5 0 -14 -7 -22 -16z"/>
<path d="M1994 2237 c-17 -7 -42 -20 -55 -29 -23 -16 -22 -16 21 -1 66 22 157
13 217 -22 45 -26 47 -27 28 -5 -26 30 -112 70 -150 69 -16 0 -44 -6 -61 -12z"/>
<path d="M2884 2239 c-16 -5 -48 -24 -70 -44 l-39 -35 48 26 c61 33 154 42
215 21 58 -20 53 -11 -10 18 -55 26 -92 29 -144 14z"/>
<path d="M1620 2132 c0 -10 -11 -29 -25 -42 -23 -22 -25 -22 -50 -6 -24 16
-25 16 -25 -4 0 -31 -26 -76 -57 -98 -59 -42 -191 -63 -263 -43 -17 5 -35 1
-55 -11 -16 -10 -46 -18 -64 -18 -41 0 -32 -12 21 -29 61 -20 122 -83 167
-172 23 -44 41 -92 41 -106 0 -58 -83 -122 -158 -123 -24 0 -42 -9 -63 -29
-27 -27 -29 -35 -29 -106 0 -48 4 -74 10 -70 6 3 10 23 10 43 0 52 32 100 83
122 48 22 167 27 232 9 48 -13 102 -52 117 -84 7 -16 21 -25 42 -27 24 -2 35
-11 51 -40 21 -40 39 -48 49 -22 14 36 6 63 -21 76 -31 15 -44 65 -21 83 7 5
21 27 31 49 l18 39 -23 -8 c-86 -27 -133 -13 -182 54 -19 25 -48 59 -65 75
-23 23 -28 33 -20 43 8 9 8 17 1 26 -8 9 2 26 36 67 98 114 106 120 156 120
26 0 55 -5 66 -12 23 -15 38 -4 22 15 -7 7 -13 22 -15 33 -1 10 -10 30 -20 44
-27 39 -22 75 13 90 30 12 37 31 24 64 -8 22 -34 20 -34 -2z"/>
<path d="M3347 2143 c-4 -3 -7 -19 -7 -33 0 -21 7 -31 30 -40 36 -15 40 -51
10 -90 -11 -14 -20 -34 -20 -45 0 -12 -5 -26 -12 -33 -17 -17 0 -28 22 -14 27
16 85 15 119 -2 15 -8 39 -32 54 -53 15 -22 43 -54 62 -73 26 -26 32 -37 24
-47 -8 -9 -8 -17 0 -27 9 -11 9 -16 -2 -23 -7 -4 -35 -35 -61 -68 -26 -33 -60
-68 -74 -77 -31 -21 -94 -23 -122 -6 -22 14 -39 3 -22 -14 7 -7 12 -21 12 -31
0 -10 10 -27 22 -36 27 -23 19 -63 -17 -79 -20 -9 -25 -19 -25 -46 0 -18 7
-39 15 -46 12 -10 18 -5 35 35 19 44 22 47 51 43 25 -4 32 0 39 17 14 37 75
82 130 95 30 7 85 11 129 8 119 -7 181 -55 181 -142 0 -19 5 -38 10 -41 6 -4
10 18 10 60 0 99 -30 145 -97 145 -91 1 -193 108 -151 158 8 9 23 40 33 67 24
66 116 158 173 176 48 14 55 29 15 29 -16 0 -41 8 -58 18 -24 15 -37 17 -65 9
-46 -12 -157 -3 -206 18 -54 22 -92 62 -105 108 -10 37 -11 38 -29 22 -25 -22
-59 -5 -67 36 -5 27 -21 37 -36 22z"/>
<path d="M1860 2131 c0 -16 73 -73 119 -94 67 -29 169 -20 218 20 20 16 38 34
40 40 2 6 -14 18 -37 27 -31 12 -75 16 -190 16 -83 0 -150 -4 -150 -9z"/>
<path d="M2795 2123 c-16 -8 -32 -17 -34 -19 -11 -10 56 -65 88 -74 57 -16
128 -12 174 10 47 22 117 76 117 91 0 5 -67 9 -157 9 -125 -1 -164 -4 -188
-17z"/>
<path d="M1909 2019 c81 -72 177 -82 281 -29 54 27 60 44 8 20 -30 -14 -65
-20 -119 -20 -67 0 -85 4 -145 34 l-69 35 44 -40z"/>
<path d="M3051 2019 c-46 -25 -66 -29 -130 -29 -54 0 -89 6 -120 20 -67 31
-60 17 11 -20 101 -54 192 -44 279 30 42 36 30 36 -40 -1z"/>
<path d="M1545 1854 c-23 -24 -15 -57 19 -72 42 -21 76 -3 76 39 0 18 -3 29
-6 26 -4 -3 -16 0 -28 8 -26 19 -41 19 -61 -1z"/>
<path d="M3390 1855 c-7 -8 -16 -12 -21 -9 -5 3 -9 -8 -9 -25 0 -35 25 -53 61
-44 51 13 64 46 31 76 -23 21 -46 22 -62 2z"/>
<path d="M2490 1835 c0 -8 5 -15 10 -15 6 0 10 7 10 15 0 8 -4 15 -10 15 -5 0
-10 -7 -10 -15z"/>
<path d="M1060 1669 c0 -125 1 -129 19 -119 35 18 51 52 51 108 0 56 -28 125
-55 135 -13 6 -15 -11 -15 -124z"/>
<path d="M3912 1785 c-13 -10 -28 -39 -38 -72 -20 -68 -9 -114 36 -158 l30
-29 0 137 c0 75 -1 137 -3 137 -1 0 -12 -7 -25 -15z"/>
<path d="M1493 1743 c-19 -26 -22 -27 -46 -14 -32 17 -47 8 -47 -29 0 -37 15
-46 47 -29 23 13 27 11 49 -16 l23 -29 23 22 c18 16 32 20 58 16 29 -4 37 -1
48 16 20 32 -9 63 -52 54 -24 -4 -36 0 -50 15 -24 27 -28 26 -53 -6z"/>
<path d="M3450 1750 c-17 -13 -34 -18 -55 -14 -38 7 -62 -24 -44 -57 9 -17 17
-20 41 -15 21 4 38 0 59 -15 l29 -20 24 28 c22 26 25 27 51 13 23 -12 27 -12
35 0 6 8 10 22 10 30 0 8 -4 22 -10 30 -8 12 -12 12 -35 0 -25 -14 -29 -13
-51 13 -12 15 -24 27 -26 27 -2 0 -14 -9 -28 -20z"/>
<path d="M1548 1619 c-21 -12 -24 -49 -6 -67 28 -28 98 0 98 39 0 37 -51 53
-92 28z"/>
<path d="M2369 1592 c-71 -43 -179 -142 -179 -166 0 -12 16 -4 54 28 79 64
131 78 274 74 131 -3 173 -17 250 -84 65 -55 52 -16 -17 53 -33 32 -87 75
-121 95 -55 32 -69 36 -130 36 -61 0 -75 -4 -131 -36z"/>
<path d="M3367 1623 c-4 -3 -7 -18 -7 -32 0 -39 70 -67 98 -39 30 30 -3 78
-55 78 -16 0 -33 -3 -36 -7z"/>
<path d="M2352 1505 c-24 -7 -62 -26 -84 -41 l-40 -28 30 -8 c16 -4 50 -28 75
-52 50 -50 117 -77 146 -59 12 7 23 8 35 1 32 -18 86 1 135 47 26 25 62 51 80
58 l33 14 -35 27 c-20 15 -57 34 -83 42 -60 18 -234 17 -292 -1z"/>
<path d="M1817 1362 c-28 -31 -20 -59 47 -161 75 -113 79 -117 128 -126 35 -7
39 -5 48 21 9 24 7 31 -17 56 -14 15 -36 28 -47 28 -12 0 -26 4 -33 8 -15 10
-43 75 -43 101 0 33 -32 91 -50 91 -9 0 -24 -8 -33 -18z"/>
<path d="M3117 1353 c-8 -16 -17 -49 -21 -75 -8 -54 -38 -98 -67 -98 -11 0
-35 -11 -54 -25 -31 -24 -32 -28 -21 -56 10 -29 13 -30 50 -25 52 9 51 8 104
90 25 39 56 84 69 99 28 34 30 78 5 100 -27 25 -50 21 -65 -10z"/>
<path d="M1232 1320 c-41 -25 -55 -61 -49 -123 8 -87 68 -127 195 -129 72 -2
97 8 148 54 l22 19 -22 23 c-16 17 -26 20 -45 14 -13 -5 -26 -7 -28 -4 -2 2
-15 -7 -28 -20 -28 -28 -72 -31 -115 -9 -35 18 -38 31 -10 40 11 3 29 18 40
32 57 73 -27 154 -108 103z"/>
<path d="M3683 1330 c-51 -21 -57 -86 -12 -124 17 -14 35 -26 39 -26 17 0 -1
-27 -26 -39 -41 -19 -83 -13 -110 14 -14 14 -29 23 -34 20 -5 -3 -18 -2 -27 3
-13 6 -24 2 -39 -14 l-22 -22 27 -25 c43 -41 72 -51 143 -49 79 1 148 28 173
66 44 67 24 165 -40 192 -39 16 -42 16 -72 4z"/>
<path d="M1638 1138 c-48 -72 -78 -148 -78 -196 0 -49 31 -105 65 -117 23 -8
30 -6 46 14 22 27 24 50 7 85 -14 31 -40 41 -68 26 -36 -19 -35 -2 1 20 19 11
43 18 55 15 18 -4 20 -1 16 25 -2 16 3 42 11 59 12 24 12 31 2 35 -8 3 -15 24
-17 48 l-3 43 -37 -57z"/>
<path d="M1770 1159 c0 -20 -7 -42 -15 -49 -11 -9 -12 -17 -5 -30 6 -10 10
-37 10 -60 0 -37 2 -41 20 -35 11 4 32 -1 50 -12 37 -21 40 -36 4 -23 -33 13
-62 -2 -70 -37 -14 -53 28 -110 63 -87 70 44 77 132 20 246 -20 40 -46 84 -57
98 l-20 25 0 -36z"/>
<path d="M3184 1129 c-47 -73 -74 -144 -74 -190 0 -43 39 -108 69 -116 51 -13
82 76 41 117 -23 23 -33 24 -61 10 -13 -7 -19 -7 -19 -1 0 16 59 43 78 37 14
-5 17 2 18 40 1 25 6 50 12 56 9 9 8 16 -2 27 -8 9 -16 32 -18 51 l-3 35 -41
-66z"/>
<path d="M3320 1159 c0 -20 -7 -42 -15 -49 -11 -9 -12 -17 -5 -30 6 -10 10
-37 10 -60 0 -37 2 -41 20 -35 11 4 32 -1 50 -12 37 -21 40 -36 4 -23 -50 19
-88 -31 -68 -88 21 -58 59 -54 102 9 19 27 23 43 19 82 -4 47 -58 169 -97 217
l-20 25 0 -36z"/>
<path d="M1058 960 l3 -182 36 5 c20 4 60 21 87 39 28 17 83 49 122 70 44 23
74 46 77 58 5 19 2 20 -44 14 -77 -10 -134 11 -194 70 -27 28 -59 64 -70 80
l-20 28 3 -182z"/>
<path d="M3923 1118 c-22 -48 -93 -116 -145 -138 -43 -18 -63 -21 -111 -16
-57 6 -58 5 -51 -17 3 -12 7 -22 8 -22 9 -1 145 -73 187 -100 30 -20 72 -38
92 -42 l37 -6 0 182 c0 99 -2 181 -3 181 -2 0 -8 -10 -14 -22z"/>
<path d="M2197 993 c-16 -8 -52 -17 -81 -20 -50 -5 -53 -7 -53 -35 0 -16 -6
-34 -14 -39 -13 -9 -55 -8 -88 2 -9 3 -19 -12 -28 -40 -9 -24 -33 -61 -54 -82
-44 -44 -47 -56 -19 -91 44 -56 171 -76 270 -43 62 20 156 104 181 160 21 46
24 97 8 127 -10 19 -9 20 12 14 13 -4 57 -14 97 -22 64 -14 80 -14 145 -1 39
8 80 18 89 22 15 6 16 0 11 -48 -4 -40 -1 -63 12 -91 25 -53 96 -120 159 -151
108 -53 267 -27 303 50 15 32 15 33 -24 72 -22 22 -48 61 -58 86 -15 40 -20
45 -36 37 -46 -25 -105 2 -96 45 3 21 -1 23 -47 27 -28 2 -66 12 -84 20 -31
16 -35 16 -86 -7 -73 -32 -164 -55 -219 -55 -45 0 -171 33 -237 63 -31 13 -38
14 -63 0z"/>
</g>
</svg>
