<svg id="visual" viewBox="0 0 900 600" width="900" height="600" xmlns="http://www.w3.org/2000/svg" xmlns:xlink="http://www.w3.org/1999/xlink" version="1.1"><path d="M0 27L21.5 46.5C43 66 86 105 128.8 117.7C171.7 130.3 214.3 116.7 257.2 109C300 101.3 343 99.7 385.8 87.2C428.7 74.7 471.3 51.3 514.2 47C557 42.7 600 57.3 642.8 58.5C685.7 59.7 728.3 47.3 771.2 58.8C814 70.3 857 105.7 878.5 123.3L900 141L900 0L878.5 0C857 0 814 0 771.2 0C728.3 0 685.7 0 642.8 0C600 0 557 0 514.2 0C471.3 0 428.7 0 385.8 0C343 0 300 0 257.2 0C214.3 0 171.7 0 128.8 0C86 0 43 0 21.5 0L0 0Z" fill="#4c4c4c" stroke-linecap="round" stroke-linejoin="miter"></path></svg>