<svg id="visual" viewBox="0 0 900 600" width="900" height="600" xmlns="http://www.w3.org/2000/svg" xmlns:xlink="http://www.w3.org/1999/xlink" version="1.1"><path d="M0 142L25 132C50 122 100 102 150 101.3C200 100.7 250 119.3 300 119.2C350 119 400 100 450 86.2C500 72.3 550 63.7 600 65C650 66.3 700 77.7 750 87.3C800 97 850 105 875 109L900 113L900 0L875 0C850 0 800 0 750 0C700 0 650 0 600 0C550 0 500 0 450 0C400 0 350 0 300 0C250 0 200 0 150 0C100 0 50 0 25 0L0 0Z" fill="#357960" stroke-linecap="round" stroke-linejoin="miter"></path></svg>