<svg id="visual" viewBox="0 0 900 600" width="900" height="600" xmlns="http://www.w3.org/2000/svg" xmlns:xlink="http://www.w3.org/1999/xlink" version="1.1"><path d="M0 456L21.5 449C43 442 86 428 128.8 420.5C171.7 413 214.3 412 257.2 414.5C300 417 343 423 385.8 431C428.7 439 471.3 449 514.2 441.3C557 433.7 600 408.3 642.8 410.8C685.7 413.3 728.3 443.7 771.2 463.3C814 483 857 492 878.5 496.5L900 501L900 601L878.5 601C857 601 814 601 771.2 601C728.3 601 685.7 601 642.8 601C600 601 557 601 514.2 601C471.3 601 428.7 601 385.8 601C343 601 300 601 257.2 601C214.3 601 171.7 601 128.8 601C86 601 43 601 21.5 601L0 601Z" fill="#357960" stroke-linecap="round" stroke-linejoin="miter"></path></svg>