<svg id="visual" viewBox="0 0 900 600" width="900" height="600" xmlns="http://www.w3.org/2000/svg" xmlns:xlink="http://www.w3.org/1999/xlink" version="1.1"><path d="M0 491L21.5 474.7C43 458.3 86 425.7 128.8 418C171.7 410.3 214.3 427.7 257.2 435.3C300 443 343 441 385.8 448.3C428.7 455.7 471.3 472.3 514.2 481C557 489.7 600 490.3 642.8 493.5C685.7 496.7 728.3 502.3 771.2 499.3C814 496.3 857 484.7 878.5 478.8L900 473L900 601L878.5 601C857 601 814 601 771.2 601C728.3 601 685.7 601 642.8 601C600 601 557 601 514.2 601C471.3 601 428.7 601 385.8 601C343 601 300 601 257.2 601C214.3 601 171.7 601 128.8 601C86 601 43 601 21.5 601L0 601Z" fill="#4c4c4c" stroke-linecap="round" stroke-linejoin="miter"></path></svg>